<svg xmlns="http://www.w3.org/2000/svg" viewBox="0 0 480 80">
  <defs>
    <linearGradient id="goldSheen" x1="0%" y1="0%" x2="100%" y2="100%">
      <stop offset="0%" style="stop-color:#C4A35A;stop-opacity:1" />
      <stop offset="50%" style="stop-color:#D4B96A;stop-opacity:1" />
      <stop offset="100%" style="stop-color:#C4A35A;stop-opacity:1" />
    </linearGradient>
  </defs>
  <!-- Horse silhouette -->
  <g transform="translate(8,8) scale(0.55)">
    <path d="M95,10 C90,5 82,2 78,5 C74,8 76,15 72,18 C68,21 60,20 55,25 C50,30 52,38 48,42 C44,46 38,45 35,50 C32,55 35,62 30,68 C28,71 24,72 22,76 C20,80 22,85 25,88 C28,91 33,90 38,92 C43,94 46,98 50,100 C54,102 60,100 62,96 C64,92 60,88 62,84 C64,80 70,78 74,74 C78,70 78,64 82,60 C86,56 92,55 95,50 C98,45 96,38 98,33 C100,28 105,24 105,18 C105,12 100,15 95,10 Z" fill="#912F2F"/>
    <circle cx="85" cy="18" r="2" fill="#EDE6D6"/>
  </g>
  <!-- Main title -->
  <text x="78" y="32" font-family="'Playfair Display', 'Georgia', serif" font-size="22" font-weight="700" fill="#FFFFFF" letter-spacing="2">CHINA</text>
  <text x="165" y="32" font-family="'Playfair Display', 'Georgia', serif" font-size="22" font-weight="400" fill="url(#goldSheen)" letter-spacing="1">—</text>
  <text x="190" y="32" font-family="'Playfair Display', 'Georgia', serif" font-size="22" font-weight="700" fill="#FFFFFF" letter-spacing="2">GULF FORUM</text>
  <text x="395" y="32" font-family="'Playfair Display', 'Georgia', serif" font-size="22" font-weight="700" fill="url(#goldSheen)" letter-spacing="1">2026</text>
  <!-- Decorative line -->
  <line x1="78" y1="40" x2="440" y2="40" stroke="url(#goldSheen)" stroke-width="0.5" opacity="0.6"/>
  <!-- Trilingual subtitle -->
  <text x="78" y="56" font-family="'Noto Serif SC', 'SimSun', serif" font-size="11" fill="#EDE6D6" opacity="0.9">中国海湾论坛</text>
  <text x="170" y="56" font-family="'Inter', 'Arial', sans-serif" font-size="9" fill="#EDE6D6" opacity="0.7" letter-spacing="0.5">|</text>
  <text x="185" y="56" font-family="'Noto Naskh Arabic', 'Arial', sans-serif" font-size="11" fill="#EDE6D6" opacity="0.9" direction="rtl">المنتدى الخليجي الصيني</text>
</svg>
